#!OML:ASF F:\VICON\USERDATA\INSTALL\rory3\rory3.ASF
:FULLY-SPECIFIED
:DEGREES
548
root 1.9906 15.8119 40.9062 0.509475 1.02216 2.28543
lowerback 11.7686 1.05338 -5.78657
upperback -4.53644 0.586938 1.16599
thorax -11.6898 0.769299 4.42272
lowerneck -9.77546 -7.3514 -5.04133
upperneck 20.0051 -10.2219 4.3117
head 8.29982 -4.82732 1.20523
rclavicle 1.19271e-015 -1.23246e-014
rhumerus -40.8171 -0.620225 -81.178
rradius 22.4171
rwrist 9.65994
rhand -9.19491 20.9295
rfingers 7.12502
rthumb 16.7588 -8.36723
lclavicle 1.19271e-015 -1.23246e-014
lhumerus -38.786 15.1699 77.2666
lradius 16.3243
lwrist -10.6701
lhand -4.22326 17.912
lfingers 7.12502
lthumb 21.5396 46.7343
rfemur 7.21678 0.590291 18.4372
rtibia 40.294
rfoot 1.95537 -0.962545
rtoes -12.8588
lfemur -25.1967 -11.9481 -24.3592
ltibia 33.9976
lfoot -5.52729 6.00801
ltoes 22.7319
549
root 2.032 15.8129 41.0238 0.463827 0.855647 2.8308
lowerback 11.9857 1.11463 -6.16772
upperback -4.60833 0.56972 0.984536
thorax -11.9077 0.790093 4.44362
lowerneck -9.71665 -7.3544 -5.05261
upperneck 20.0623 -10.231 4.3129
head 8.30957 -4.83301 1.20788
rclavicle -6.78353e-015 -5.1684e-015
rhumerus -41.311 -0.662791 -81.1626
rradius 22.2678
rwrist 9.84842
rhand -9.15934 21.2054
rfingers 7.12502
rthumb 16.793 -8.08836
lclavicle -6.78353e-015 -5.1684e-015
lhumerus -38.768 14.7549 77.496
lradius 16.5867
lwrist -10.4499
lhand -4.24918 17.8391
lfingers 7.12502
lthumb 21.5147 46.6642
rfemur 5.67174 0.319599 17.4525
rtibia 43.0764
rfoot 3.61766 -0.92019
rtoes -11.9938
lfemur -24.4298 -11.7394 -25.2114
ltibia 33.6656
lfoot -6.00272 5.87245
ltoes 23.0715
550
root 2.06093 15.815 41.1523 0.331347 0.586685 2.8906
lowerback 12.1172 1.15862 -6.30952
upperback -4.62921 0.598344 1.01201
thorax -12.0194 0.820314 4.54866
lowerneck -9.75469 -7.33194 -5.0591
upperneck 20.2121 -10.1925 4.24753
head 8.36168 -4.81912 1.18833
rclavicle -4.05024e-015 -6.75868e-015
rhumerus -41.7088 -0.718259 -81.0953
rradius 21.9558
rwrist 10.1343
rhand -9.03482 21.7577
rfingers 7.12502
rthumb 16.9129 -7.52591
lclavicle -4.05024e-015 -6.75868e-015
lhumerus -38.7183 14.1648 77.9081
lradius 16.8397
lwrist -9.79221
lhand -4.38469 17.7201
lfingers 7.12502
lthumb 21.3845 46.56
rfemur 4.2283 0.256295 17.1198
rtibia 45.7679
rfoot 5.4572 -0.932145
rtoes -11.6345
lfemur -23.5741 -11.2893 -25.5194
ltibia 33.3063
lfoot -6.35331 5.56399
ltoes 23.5663
551
root 2.08943 15.8263 41.2731 0.258244 0.368008 3.05793
lowerback 12.247 1.17058 -6.56262
upperback -4.67305 0.561512 1.02047
thorax -12.1506 0.828819 4.71095
lowerneck -9.75797 -7.27472 -5.06523
upperneck 20.3471 -10.1041 4.17351
head 8.39948 -4.78351 1.17315
rclavicle 7.42958e-015 1.47101e-014
rhumerus -42.0755 -0.777466 -81.0538
rradius 21.7176
rwrist 10.4543
rhand -8.87137 21.8796
rfingers 7.12502
rthumb 17.0702 -7.39041
lclavicle 7.42958e-015 1.47101e-014
lhumerus -38.6927 13.5621 78.3143
lradius 17.1746
lwrist -9.12271
lhand -4.49079 17.6821
lfingers 7.12502
lthumb 21.2826 46.5336
rfemur 2.63909 0.146259 16.6703
rtibia 48.4087
rfoot 7.68718 -0.889329
rtoes -11.1886
lfemur -22.7463 -10.8576 -25.9272
ltibia 32.871
lfoot -6.48316 5.31976
ltoes 23.8617
552
root 2.12672 15.8365 41.3935 0.431559 0.327021 3.66927
lowerback 11.7587 1.12817 -6.99757
upperback -4.51083 0.447884 0.798648
thorax -11.6621 0.77473 4.73578
lowerneck -10.0654 -7.26362 -5.01326
upperneck 20.3801 -10.1055 4.25966
head 8.4685 -4.765 1.18079
rclavicle 1.66482e-014 -1.59028e-014
rhumerus -41.9591 -0.892782 -81.2149
rradius 21.573
rwrist 10.4764
rhand -8.62412 21.4915
rfingers 7.12502
rthumb 17.3082 -7.75779
lclavicle 1.66482e-014 -1.59028e-014
lhumerus -38.1759 13.0607 78.6618
lradius 17.4783
lwrist -8.71759
lhand -4.44338 17.8836
lfingers 7.12502
lthumb 21.3281 46.7299
rfemur 0.913554 -0.353373 15.554
rtibia 50.9376
rfoot 10.0104 -0.961593
rtoes -8.50651
lfemur -22.1371 -10.6492 -26.8317
ltibia 32.4632
lfoot -6.47933 5.07948
ltoes 24.3417
553
root 2.16704 15.8434 41.5202 0.519142 0.257323 4.36834
lowerback 11.678 1.12216 -7.40533
upperback -4.60306 0.344805 0.516616
thorax -11.711 0.747072 4.67767
lowerneck -10.0311 -7.22962 -5.09467
upperneck 20.5052 -10.097 4.45707
head 8.51949 -4.74722 1.25944
rclavicle 3.8763e-015 1.47101e-014
rhumerus -42.3237 -0.989413 -81.3275
rradius 21.4573
rwrist 10.5476
rhand -8.33404 21.2245
rfingers 7.12502
rthumb 17.5874 -8.00005
lclavicle 3.8763e-015 1.47101e-014
lhumerus -38.1051 12.6192 78.7816
lradius 17.6981
lwrist -8.44331
lhand -4.3249 18.0111
lfingers 7.12502
lthumb 21.4419 46.8445
rfemur -0.662944 -0.838433 14.3204
rtibia 53.384
rfoot 12.4397 -1.51221
rtoes -5.74947
lfemur -21.3351 -10.5222 -27.8644
ltibia 31.9456
lfoot -6.55399 4.89324
ltoes 25.438
554
root 2.19029 15.847 41.6539 0.231706 -0.0730198 4.40887
lowerback 11.731 1.22503 -7.46469
upperback -4.50761 0.473286 0.524232
thorax -11.6541 0.807934 4.69182
lowerneck -10.0596 -7.21103 -5.16484
upperneck 20.5216 -10.0634 4.4808
head 8.53363 -4.73359 1.28099
rclavicle -7.33018e-015 5.1684e-015
rhumerus -42.5258 -1.28907 -81.2059
rradius 21.222
rwrist 10.8715
rhand -8.08439 21.3157
rfingers 7.12502
rthumb 17.8276 -7.8871
lclavicle -7.33018e-015 5.1684e-015
lhumerus -37.9456 12.3218 78.9621
lradius 17.9119
lwrist -8.29969
lhand -4.22786 17.9058
lfingers 7.12502
lthumb 21.5351 46.7286
rfemur -1.8998 -0.790701 14.119
rtibia 55.71
rfoot 14.9566 -2.99295
rtoes -1.88602
lfemur -20.2013 -10.1763 -28.1202
ltibia 31.4931
lfoot -6.99905 4.76573
ltoes 26.2815
555
root 2.22156 15.8601 41.7757 0.223774 -0.147069 4.67792
lowerback 11.7625 1.19104 -7.67705
upperback -4.5831 0.382717 0.488933
thorax -11.7516 0.785243 4.79309
lowerneck -9.82599 -7.14456 -5.22709
upperneck 20.4595 -9.9572 4.43988
head 8.46548 -4.69828 1.29926
rclavicle -2.10463e-014 1.59028e-015
rhumerus -42.8841 -1.09914 -81.3483
rradius 21.1908
rwrist 10.5103
rhand -7.87238 20.847
rfingers 7.12502
rthumb 18.0316 -8.33715
lclavicle -2.10463e-014 1.59028e-015
lhumerus -37.976 11.8694 79.2595
lradius 18.2233
lwrist -7.72153
lhand -4.42054 17.6859
lfingers 7.12502
lthumb 21.3501 46.5297
rfemur -3.53065 -1.08907 13.5447
rtibia 57.9463
rfoot 17.4821 -4.68446
rtoes 3.30167
lfemur -19.3868 -10.1045 -28.6337
ltibia 31.0455
lfoot -7.20546 4.60868
ltoes 27.2914
556
root 2.23419 15.8739 41.8704 0.290088 -0.316004 4.63896
lowerback 11.8466 1.16768 -7.85619
upperback -4.57195 0.32389 0.576783
thorax -11.7867 0.77642 5.00543
lowerneck -9.73217 -7.0857 -5.22143
upperneck 20.3186 -9.8655 4.41119
head 8.39397 -4.66124 1.30464
rclavicle 5.26779e-015 1.82882e-014
rhumerus -42.9 -0.998978 -81.4751
rradius 21.1185
rwrist 10.4082
rhand -7.67692 20.5397
rfingers 7.12502
rthumb 18.2197 -8.62703
lclavicle 5.26779e-015 1.82882e-014
lhumerus -37.6657 11.3153 79.6824
lradius 18.5466
lwrist -6.73735
lhand -4.58688 17.6229
lfingers 7.12502
lthumb 21.1903 46.4847
rfemur -5.5709 -1.05854 13.6279
rtibia 60.2027
rfoot 19.0827 -7.46267
rtoes 10.5381
lfemur -18.9184 -9.7415 -28.6861
ltibia 30.7091
lfoot -7.10828 4.42968
ltoes 26.6735
557
root 2.25307 15.8858 41.9926 0.162069 -0.430552 4.62576
lowerback 11.7343 1.13061 -7.88768
upperback -4.42444 0.287632 0.602179
thorax -11.5456 0.748281 5.05875
lowerneck -9.94842 -7.0608 -5.15904
upperneck 20.4321 -9.82058 4.32637
head 8.46142 -4.6378 1.2625
rclavicle 1.20016e-014 1.78906e-014
rhumerus -42.8813 -1.24103 -81.47
rradius 20.8917
rwrist 10.8944
rhand -7.91953 20.8962
rfingers 7.12502
rthumb 17.9863 -8.29212
lclavicle 1.20016e-014 1.78906e-014
lhumerus -37.3069 10.991 79.9404
lradius 18.8842
lwrist -6.1904
lhand -4.79394 17.7497
lfingers 7.12502
lthumb 20.9914 46.6337
rfemur -6.94628 -1.18797 13.5731
rtibia 62.1611
rfoot 19.3155 -9.97454
rtoes 18.4069
lfemur -18.0312 -9.44036 -28.8626
ltibia 30.3067
lfoot -7.34567 4.27423
ltoes 24.6392
558
root 2.27609 15.8881 42.1041 0.114206 -0.491358 4.88887
lowerback 11.7606 1.09971 -8.12726
upperback -4.42289 0.197669 0.542733
thorax -11.551 0.7206 5.14862
lowerneck -9.7938 -7.01335 -5.19294
upperneck 20.3531 -9.75194 4.33145
head 8.40502 -4.61184 1.28412
rclavicle -1.50331e-014 7.55382e-015
rhumerus -43.084 -1.4613 -81.434
rradius 20.7417
rwrist 11.3663
rhand -8.21216 21.0244
rfingers 7.12502
rthumb 17.7047 -8.18962
lclavicle -1.50331e-014 7.55382e-015
lhumerus -37.1909 10.9153 80.0108
lradius 19.2015
lwrist -6.12313
lhand -4.85594 17.8778
lfingers 7.12502
lthumb 20.9318 46.7684
rfemur -8.36742 -1.49103 13.1492
rtibia 64.0653
rfoot 18.8326 -11.8411
rtoes 24.5843
lfemur -17.3735 -9.30588 -29.3005
ltibia 30.0716
lfoot -7.75003 4.09827
ltoes 23.3707
559
root 2.303 15.8862 42.2125 0.0978863 -0.502251 5.20546
lowerback 11.9391 1.04177 -8.34677
upperback -4.55078 0.0499 0.446539
thorax -11.786 0.676522 5.20026
lowerneck -9.40543 -6.93576 -5.30544
upperneck 20.2677 -9.67242 4.49147
head 8.31558 -4.57683 1.379
rclavicle -1.37658e-014 -5.1684e-015
rhumerus -43.4736 -1.48254 -81.4949
rradius 20.7112
rwrist 11.545
rhand -8.33111 21.2107
rfingers 7.12502
rthumb 17.5902 -8.01361
lclavicle -1.37658e-014 -5.1684e-015
lhumerus -37.2892 10.5504 80.1347
lradius 19.5701
lwrist -5.67825
lhand -4.76968 18.2151
lfingers 7.12502
lthumb 21.0147 47.0965
rfemur -9.74013 -1.93711 12.6344
rtibia 65.8399
rfoot 17.7744 -12.8428
rtoes 28.1428
lfemur -16.766 -9.28394 -29.8485
ltibia 29.9012
lfoot -8.26357 4.06069
ltoes 23.2288
560
root 2.32051 15.8766 42.3092 0.0308087 -0.46936 5.16513
lowerback 11.9094 0.973124 -8.29473
upperback -4.35551 -0.0212813 0.452911
thorax -11.5317 0.62169 5.1926
lowerneck -9.69715 -6.91231 -5.15041
upperneck 20.2548 -9.64105 4.43726
head 8.35152 -4.54964 1.32956
rclavicle 2.68359e-015 7.95139e-015
rhumerus -43.2873 -1.79265 -81.4924
rradius 20.7326
rwrist 11.7891
rhand -8.44102 21.4642
rfingers 7.12502
rthumb 17.4844 -7.76955
lclavicle 2.68359e-015 7.95139e-015
lhumerus -36.7377 10.4088 80.3038
lradius 19.8296
lwrist -5.4393
lhand -4.76047 18.4074
lfingers 7.12502
lthumb 21.0235 47.2879
rfemur -11.118 -2.25087 12.7311
rtibia 67.5565
rfoot 16.3281 -12.7308
rtoes 27.9487
lfemur -16.2141 -9.17558 -29.9587
ltibia 29.786
lfoot -8.6032 3.86411
ltoes 24.3933
561
root 2.33617 15.8768 42.4055 -0.102146 -0.438092 5.12104
lowerback 12.0838 0.920233 -8.32037
upperback -4.23922 -0.10219 0.508714
thorax -11.4913 0.582403 5.28789
lowerneck -9.95135 -6.86758 -5.04818
upperneck 20.3748 -9.56701 4.3191
head 8.42285 -4.51176 1.27222
rclavicle -1.26725e-014 -2.50469e-014
rhumerus -43.2774 -1.85497 -81.5682
rradius 20.8156
rwrist 11.7173
rhand -8.49194 21.3382
rfingers 7.12502
rthumb 17.4354 -7.89991
lclavicle -1.26725e-014 -2.50469e-014
lhumerus -36.2914 10.6375 80.3232
lradius 19.9284
lwrist -5.58306
lhand -4.89869 18.12
lfingers 7.12502
lthumb 20.8908 47.0152
rfemur -12.4414 -2.50079 12.8722
rtibia 69.1201
rfoot 14.8192 -11.6396
rtoes 25.3512
lfemur -15.5988 -9.19118 -30.0475
ltibia 29.6546
lfoot -8.89922 3.81264
ltoes 24.5307
